HIERARCHY
ROOT Hips
{
	OFFSET 0.000000 0.950198 0.000000
	CHANNELS 6 Xposition Yposition Zposition Zrotation Yrotation Xrotation 
	JOINT LeftUpLeg
	{
		OFFSET 0.054186 -0.120336 -0.016047
		CHANNELS 3 Zrotation Yrotation Xrotation
		JOINT LeftLeg
		{
			OFFSET 0.072326 -0.368242 -0.007290
			CHANNELS 3 Zrotation Yrotation Xrotation
			JOINT LeftFoot
			{
				OFFSET -0.022851 -0.420467 -0.117070
				CHANNELS 3 Zrotation Yrotation Xrotation
				End Site #name: LeftToeBase
				{
					OFFSET 0.064242 -0.039712 0.123310
				}
			}
		}
	}
	JOINT rightUpLeg
	{
		OFFSET -0.066480 -0.124629 -0.012790
		CHANNELS 3 Zrotation Yrotation Xrotation
		JOINT RightLeg
		{
			OFFSET -0.084095 -0.360423 -0.010046
			CHANNELS 3 Zrotation Yrotation Xrotation
			JOINT RightFoot
			{
				OFFSET 0.011948 -0.424660 -0.069496
				CHANNELS 3 Zrotation Yrotation Xrotation
				End Site #name: RightToeBase
				{
					OFFSET -0.036178 -0.042419 0.144583
				}
			}
		}
	}
	JOINT Spine
	{
		OFFSET 0.010385 0.082415 -0.034454
		CHANNELS 3 Zrotation Yrotation Xrotation
		JOINT Spine1
		{
			OFFSET 0.019789 0.160583 -0.004941
			CHANNELS 3 Zrotation Yrotation Xrotation
			JOINT Spine2
			{
				OFFSET 0.000707 0.069618 0.006963
				CHANNELS 3 Zrotation Yrotation Xrotation
				JOINT Neck
				{
					OFFSET -0.003480 0.219500 -0.058014
					CHANNELS 3 Zrotation Yrotation Xrotation
					End Site #name: Head
					{
						OFFSET -0.008487 0.054425 0.047794
					}
				}
				JOINT LeftShoulder
				{
					OFFSET 0.075500 0.128061 -0.030627
					CHANNELS 3 Zrotation Yrotation Xrotation
					JOINT LeftArm
					{
						OFFSET 0.127606 -0.045624 0.003773
						CHANNELS 3 Zrotation Yrotation Xrotation
						JOINT LeftForeArm
						{
							OFFSET 0.042650 -0.277623 0.044029
							CHANNELS 3 Zrotation Yrotation Xrotation
							End Site #name: LeftHand
							{
								OFFSET 0.020179 -0.166812 0.205808
							}
						}
					}
				}
				JOINT RightShoulder
				{
					OFFSET -0.076975 0.137091 -0.044512
					CHANNELS 3 Zrotation Yrotation Xrotation
					JOINT RightArm
					{
						OFFSET -0.111261 -0.022460 0.018313
						CHANNELS 3 Zrotation Yrotation Xrotation
						JOINT RightForeArm
						{
							OFFSET -0.080764 -0.230840 0.085587
							CHANNELS 3 Zrotation Yrotation Xrotation
							End Site #name: RightHand
							{
								OFFSET 0.017657 -0.123381 0.243606
							}
						}
					}
				}
			}
		}
	}
}
MOTION
Frames: 22
Frame Time: 0.041667
0.096009 0.957207 0.013890 -1.879882 -0.278754 0.534357 0.889949 -0.621179 -3.205521 1.042142 -0.314772 0.380764 -1.202854 -3.762156 0.020557 0.736463 -0.323769 1.262336 -0.305633 -0.136712 -6.094825 -1.776347 -7.911244 3.278991 2.003787 -0.431434 3.499314 -3.566049 0.136455 -10.414376 -2.642023 -0.762303 5.057135 14.720177 -12.843087 2.200172 5.322458 1.350211 0.394765 -4.088685 -0.743531 -0.476791 3.858022 4.885327 4.224176 -35.316199 -7.582569 -2.220673 -37.903439 -13.902324 -26.878331 -44.448970 -47.744049 30.606421 
0.096961 0.957124 0.014605 -1.937090 -0.279743 0.547194 0.908507 -0.647288 -3.345222 1.171836 -0.357474 0.473582 -1.112765 -3.721457 -0.120861 0.841235 -0.362919 1.407389 -0.333877 -0.136454 -6.187149 -1.886411 -8.144633 3.102473 2.016602 -0.425145 3.454695 -3.493543 0.140213 -10.199303 -2.682772 -0.776068 5.036851 14.805801 -12.904329 2.004273 5.144913 1.236432 0.351186 -4.224929 -0.821983 -0.767001 3.882569 4.909882 4.122893 -35.038162 -7.564606 -2.196905 -37.847707 -13.868484 -26.875986 -45.946819 -47.163960 33.274176 
0.097816 0.957167 0.015361 -1.975453 -0.275438 0.520110 0.912815 -0.675426 -3.495064 1.314059 -0.409493 0.648886 -1.054798 -3.538738 -0.122916 0.914372 -0.403580 1.563042 -0.359385 -0.136168 -6.267576 -1.980092 -8.355958 2.972994 1.992222 -0.423448 3.442616 -3.411041 0.144520 -9.936200 -2.690846 -0.783465 4.950307 14.723566 -12.826087 1.918162 4.934267 1.208236 0.343496 -4.426064 -0.907586 -1.033072 3.912481 4.945488 4.173180 -34.882959 -7.575986 -2.171717 -37.766426 -13.818634 -26.859350 -46.892723 -46.505030 35.287259 
0.098612 0.957286 0.016053 -1.996209 -0.263743 0.460992 0.908914 -0.703322 -3.643103 1.429261 -0.457546 0.872492 -1.032566 -3.338784 -0.049323 0.948850 -0.442712 1.718494 -0.374020 -0.136503 -6.329297 -2.042745 -8.503150 2.896104 1.951330 -0.434306 3.519861 -3.351460 0.146960 -9.768860 -2.685707 -0.785265 4.874509 14.527343 -12.652112 1.888308 4.763591 1.224643 0.353264 -4.606705 -0.980274 -1.246140 3.940050 4.984216 4.410182 -34.828016 -7.628030 -2.136131 -37.773975 -13.818431 -26.732208 -47.204228 -45.878105 36.435945 
0.099378 0.957380 0.016619 -1.990658 -0.251799 0.406500 0.909782 -0.728930 -3.779286 1.470309 -0.482232 1.060687 -1.058943 -3.220992 0.066840 0.942264 -0.477183 1.861962 -0.360800 -0.139591 -6.383290 -2.084128 -8.623853 2.889694 1.906394 -0.455492 3.671284 -3.363125 0.147713 -9.738544 -2.664756 -0.783738 4.850761 14.285287 -12.443591 1.944369 4.670942 1.239333 0.360880 -4.718415 -1.022150 -1.360432 3.918300 4.967572 4.661703 -34.832518 -7.694418 -2.099764 -37.854123 -13.856537 -26.464040 -47.136568 -45.387819 36.935234 
0.100157 0.957385 0.017041 -1.956387 -0.243590 0.361098 0.916781 -0.748791 -3.885433 1.441117 -0.483252 1.199047 -1.105891 -3.217982 0.154834 0.918454 -0.507678 1.992374 -0.335385 -0.143506 -6.422331 -2.113818 -8.735896 2.934216 1.854284 -0.484034 3.876438 -3.446739 0.147274 -9.821838 -2.618095 -0.781900 4.872982 14.017534 -12.217263 2.088580 4.662282 1.222146 0.354085 -4.760191 -1.024914 -1.337806 3.826537 4.866917 4.741609 -34.894118 -7.750967 -2.075663 -37.972455 -13.911155 -26.048644 -46.720445 -45.070109 36.776941 
0.100969 0.957269 0.017319 -1.883182 -0.243265 0.313038 0.911140 -0.761570 -3.952901 1.356028 -0.466867 1.321996 -1.168166 -3.376323 0.177873 0.865120 -0.532867 2.106868 -0.280134 -0.149081 -6.412036 -2.164929 -8.926764 3.008522 1.809046 -0.519068 4.129340 -3.600697 0.146614 -9.953368 -2.552799 -0.785123 4.903268 13.594326 -11.862402 2.419184 4.735141 1.177206 0.334560 -4.703811 -0.975716 -1.138355 3.655907 4.669123 4.581136 -35.045954 -7.833998 -2.047398 -38.124755 -13.978363 -25.477567 -45.875835 -45.009269 35.742256 
0.101820 0.956999 0.017444 -1.784049 -0.261763 0.250189 0.886314 -0.765352 -3.970875 1.233027 -0.442629 1.496520 -1.231266 -3.715280 0.099135 0.774841 -0.544208 2.171753 -0.184451 -0.155373 -6.278762 -2.256737 -9.242307 3.092341 1.789780 -0.555216 4.390200 -3.783295 0.145542 -10.101983 -2.469035 -0.788395 4.915603 12.826476 -11.200619 2.872504 4.892601 1.188048 0.336047 -4.555084 -0.864787 -0.702687 3.489588 4.470691 4.313091 -35.404371 -8.012347 -1.989520 -38.385882 -14.100107 -24.747722 -44.262539 -45.171327 33.390993 
0.102721 0.956837 0.017434 -1.725002 -0.315000 0.201257 0.869261 -0.750841 -3.892433 1.106798 -0.414195 1.627360 -1.282387 -4.187096 -0.075164 0.687737 -0.537736 2.162219 -0.083501 -0.158983 -6.023274 -2.319857 -9.419768 3.072407 1.819158 -0.556779 4.399700 -3.909702 0.152122 -9.889172 -2.359209 -0.792317 4.761885 11.756450 -10.252887 3.289178 4.990038 1.374518 0.410278 -4.292882 -0.697568 -0.064699 3.508233 4.483820 4.112988 -35.963607 -8.517449 -1.766948 -38.589328 -14.180416 -23.924420 -41.509366 -45.950678 28.664034 
0.103615 0.957590 0.017366 -1.614655 -0.321629 -0.026565 0.578527 -0.743867 -3.832446 1.084010 -0.459914 2.430955 -1.529033 -3.685926 0.658894 0.249501 -0.439398 1.834345 0.296191 -0.184498 -5.375971 -2.030001 -8.552410 3.062923 2.031901 -0.676231 5.233425 -4.031003 0.165783 -9.410296 -2.372969 -0.880636 3.952551 11.024477 -9.602443 4.082249 4.791769 3.298865 1.194962 -4.009281 -0.445402 1.020286 3.776124 4.749905 3.012823 -38.415254 -13.183170 0.785367 -38.106567 -13.804045 -21.389602 -21.461508 -45.301441 -3.151165 
0.104440 0.958106 0.017359 -1.580019 -0.332251 0.013034 0.539234 -0.758294 -3.904735 1.043529 -0.448750 2.447168 -1.498618 -3.515786 0.701692 0.175083 -0.382611 1.607068 0.363615 -0.187300 -5.172245 -1.996512 -8.384304 2.933592 2.076096 -0.669823 5.183266 -4.089422 0.168684 -9.337207 -2.337687 -0.894006 3.932941 10.981971 -9.567907 4.405234 4.771282 3.455518 1.258536 -3.990756 -0.397051 1.260316 3.856203 4.839141 2.906542 -38.468851 -13.603612 1.040731 -37.879107 -13.682984 -21.457053 -19.460323 -44.315660 -6.005168 
0.105389 0.958521 0.017370 -1.590849 -0.352637 0.064548 0.527355 -0.773923 -3.985345 1.020253 -0.442520 2.459500 -1.505487 -3.458676 0.747306 0.113245 -0.327912 1.385138 0.439927 -0.191360 -4.966671 -1.957681 -8.198466 2.803721 2.134107 -0.656732 5.084913 -4.124472 0.172204 -9.226189 -2.336823 -0.915646 3.905646 11.012884 -9.599857 4.642754 4.747477 3.527278 1.287563 -3.882038 -0.338241 1.486283 3.945540 4.942622 2.898232 -38.362764 -13.920371 1.241138 -37.701731 -13.591109 -21.590048 -17.927365 -43.455482 -8.211812 
0.106510 0.958867 0.017428 -1.630392 -0.380232 0.112195 0.537755 -0.784633 -4.042157 0.990104 -0.432840 2.450613 -1.540055 -3.489098 0.792742 0.061721 -0.275179 1.168797 0.535708 -0.197989 -4.758260 -1.916918 -8.017543 2.696457 2.227008 -0.639495 4.954968 -4.179615 0.176517 -9.103058 -2.354555 -0.936778 3.895446 11.028768 -9.616850 4.797333 4.732326 3.543772 1.294177 -3.702820 -0.270428 1.708481 3.968608 4.968976 2.884427 -38.219049 -14.122586 1.372398 -37.557451 -13.515628 -21.687785 -16.719489 -42.785517 -10.034559 
0.107810 0.959086 0.017583 -1.670360 -0.409537 0.148918 0.560653 -0.788737 -4.065623 0.940168 -0.418311 2.459203 -1.581137 -3.572234 0.819462 0.018441 -0.230078 0.982912 0.632149 -0.206020 -4.593501 -1.887203 -7.901938 2.649424 2.337997 -0.617980 4.795261 -4.249293 0.181997 -8.952605 -2.391699 -0.953702 3.880940 11.025156 -9.614598 4.872545 4.733876 3.547847 1.295839 -3.503409 -0.205728 1.902459 3.932848 4.925116 2.812829 -38.122456 -14.235865 1.446408 -37.466660 -13.466718 -21.710736 -15.852964 -42.361647 -11.434503 
0.109278 0.959225 0.017835 -1.696102 -0.439684 0.169375 0.588387 -0.787222 -4.060160 0.873165 -0.400204 2.492823 -1.628909 -3.709729 0.826916 -0.024734 -0.195067 0.839623 0.724289 -0.215248 -4.496523 -1.873259 -7.866287 2.661463 2.448739 -0.598615 4.652586 -4.311732 0.186866 -8.824987 -2.449764 -0.971899 3.871275 11.045199 -9.633993 4.922378 4.771659 3.545371 1.295043 -3.337250 -0.150204 2.076006 3.883091 4.862603 2.674467 -38.139025 -14.320422 1.497540 -37.388634 -13.423107 -21.681536 -15.232170 -42.086742 -12.483836 
0.110863 0.959377 0.018161 -1.709773 -0.470194 0.182505 0.606782 -0.781436 -4.031485 0.813596 -0.384278 2.526004 -1.677732 -3.871036 0.822634 -0.061902 -0.173717 0.753619 0.792934 -0.223278 -4.474910 -1.877599 -7.924632 2.744098 2.542093 -0.583866 4.544627 -4.358092 0.189374 -8.772964 -2.515177 -0.987596 3.902504 11.142555 -9.725172 4.954772 4.832013 3.551774 1.297982 -3.236357 -0.115132 2.190317 3.840195 4.807412 2.524634 -38.253319 -14.424678 1.556583 -37.324975 -13.387364 -21.651368 -14.881693 -41.944360 -13.094946 
0.112514 0.959568 0.018524 -1.722877 -0.496965 0.200259 0.610122 -0.776158 -4.004121 0.768273 -0.373279 2.569558 -1.712613 -3.998229 0.812806 -0.085525 -0.154011 0.672444 0.833447 -0.228038 -4.462563 -1.891382 -8.031228 2.863806 2.598519 -0.573682 4.471280 -4.359393 0.188368 -8.809974 -2.584585 -0.998793 3.973723 11.331710 -9.901999 4.989450 4.915719 3.578860 1.309494 -3.205846 -0.097413 2.264201 3.807965 4.767183 2.452541 -38.415880 -14.561214 1.633850 -37.337846 -13.394119 -21.642232 -14.792599 -41.827241 -13.184193 
0.114173 0.959838 0.018923 -1.757033 -0.509207 0.212874 0.605605 -0.772144 -3.982704 0.757519 -0.373108 2.619119 -1.736912 -4.063945 0.819137 -0.082264 -0.137006 0.598869 0.831552 -0.227484 -4.446933 -1.895305 -8.112101 2.992042 2.630799 -0.566793 4.422297 -4.338679 0.184554 -8.930009 -2.637446 -0.994502 4.077682 11.596868 -10.149184 5.000046 4.985297 3.649393 1.338715 -3.213364 -0.091748 2.301061 3.733178 4.681704 2.509641 -38.602111 -14.725734 1.728127 -37.449325 -13.455841 -21.667283 -15.208095 -41.880461 -12.360690 
0.115803 0.960096 0.019370 -1.828898 -0.492107 0.221659 0.623535 -0.770023 -3.973109 0.798707 -0.385939 2.624377 -1.773167 -4.047927 0.893961 -0.023948 -0.127380 0.549238 0.766561 -0.218958 -4.424592 -1.872251 -8.099756 3.097673 2.658349 -0.564014 4.401765 -4.354957 0.179837 -9.111345 -2.641211 -0.954363 4.187799 11.929350 -10.457001 4.944318 4.979800 3.796080 1.398599 -3.228299 -0.104233 2.243929 3.542882 4.465013 2.657144 -38.759167 -14.789031 1.761267 -37.708258 -13.597118 -21.660197 -16.712823 -42.468052 -9.771423 
0.117354 0.960043 0.019854 -1.910939 -0.447684 0.219692 0.678952 -0.766723 -3.960475 0.889366 -0.410028 2.570346 -1.868894 -4.069176 1.054937 0.043304 -0.128388 0.544078 0.674937 -0.207088 -4.402015 -1.835019 -8.043429 3.199874 2.684832 -0.581653 4.520282 -4.459658 0.171824 -9.461937 -2.616728 -0.878725 4.328883 12.208303 -10.714135 4.883742 4.924264 3.972022 1.469931 -3.186825 -0.132394 2.057329 3.231879 4.106097 2.748277 -38.829926 -14.536033 1.600775 -38.211848 -13.865588 -21.497975 -19.730363 -43.694900 -4.916899 
0.118764 0.959582 0.020373 -1.948919 -0.392735 0.263258 0.781178 -0.765915 -3.964879 0.997827 -0.435357 2.453471 -2.079603 -4.351015 1.273093 0.089211 -0.137019 0.574483 0.543923 -0.192961 -4.496221 -1.851137 -8.214578 3.431485 2.707225 -0.624321 4.808761 -4.699803 0.159286 -9.999455 -2.573630 -0.786769 4.396983 12.156492 -10.669344 4.983193 4.916348 4.010638 1.485607 -3.159011 -0.167161 1.844427 2.897084 3.704268 2.541086 -38.759117 -13.924020 1.223663 -39.070022 -14.331118 -21.475817 -25.047447 -45.014703 3.619077 
0.120060 0.959211 0.020880 -1.906399 -0.341526 0.488597 0.917468 -0.791242 -4.111210 1.005057 -0.427162 2.292812 -2.203530 -5.014914 1.117392 0.253631 -0.138850 0.559101 0.194792 -0.156379 -4.747423 -2.029174 -8.712247 3.376414 2.565447 -0.580029 4.516799 -4.925495 0.160205 -10.056712 -2.485073 -0.697652 4.335121 11.809166 -10.356973 5.369427 4.965547 3.645106 1.336835 -3.238438 -0.214191 1.649066 3.050433 3.848107 1.843344 -37.824883 -12.617315 0.477270 -40.455244 -15.138095 -22.322898 -33.818431 -42.827603 20.885168 
